<svg width="15" height="12" viewBox="0 0 15 12" fill="none" xmlns="http://www.w3.org/2000/svg">
<path d="M6.98625 9.7845C7.04359 9.85112 7.12031 9.90559 7.20981 9.94322C7.2993 9.98085 7.39889 10.0005 7.5 10.0005C7.6011 10.0005 7.7007 9.98085 7.79019 9.94322C7.87969 9.90559 7.95641 9.85112 8.01375 9.7845L13.6387 3.2845C13.7039 3.20953 13.742 3.12172 13.7491 3.0306C13.7563 2.93949 13.732 2.84856 13.6791 2.7677C13.6261 2.68683 13.5465 2.61912 13.4488 2.57193C13.3511 2.52473 13.2391 2.49986 13.125 2.5H1.875C1.76115 2.50038 1.64958 2.52557 1.5523 2.57288C1.45501 2.62019 1.37569 2.68782 1.32285 2.7685C1.27002 2.84917 1.24568 2.93985 1.25244 3.03077C1.25921 3.12168 1.29682 3.20941 1.36125 3.2845L6.98625 9.7845Z" fill="#84929E"/>
</svg>
