<svg width="1440" height="128" viewBox="0 0 1440 128" fill="none" xmlns="http://www.w3.org/2000/svg">
<path fill-rule="evenodd" clip-rule="evenodd" d="M1588 0L1475.17 4.80925C1360.21 9.6185 1134.54 19.237 906.75 35.5145C678.957 52.1618 453.293 75.8381 225.5 80.6474C-2.29302 85.4566 -227.957 71.0289 -455.75 66.5896C-683.543 61.7803 -909.207 66.5896 -1024.17 68.8092L-1137 71.0289V128H-1024.17C-909.207 128 -683.543 128 -455.75 128C-227.957 128 -2.29302 128 225.5 128C453.293 128 678.957 128 906.75 128C1134.54 128 1360.21 128 1475.17 128H1588V0Z" fill="#008080" fill-opacity="0.8"/>
<path fill-rule="evenodd" clip-rule="evenodd" d="M1588 51.2L1497.17 61.44C1406.33 71.68 1224.67 92.16 1043 87.04C861.333 81.92 679.667 51.2 498 30.72C316.333 10.24 134.666 0 -47.0002 0C-228.667 0 -410.334 10.24 -592 28.16C-773.667 46.08 -955.334 71.68 -1046.17 84.48L-1137 97.28V128H-1046.17C-955.334 128 -773.667 128 -592 128C-410.334 128 -228.667 128 -47.0002 128C134.666 128 316.333 128 498 128C679.667 128 861.333 128 1043 128C1224.67 128 1406.33 128 1497.17 128H1588V51.2Z" fill="#66B2B2" fill-opacity="0.8"/>
</svg>
