<svg width="1497" height="93" viewBox="0 0 1497 93" fill="none" xmlns="http://www.w3.org/2000/svg">
<path fill-rule="evenodd" clip-rule="evenodd" d="M1591 0L1478.17 3.49422C1363.21 6.98844 1137.54 13.9769 909.75 25.8035C681.957 37.8988 456.293 55.1012 228.5 58.5954C0.707016 62.0896 -224.957 51.6069 -452.75 48.3815C-680.543 44.8873 -906.207 48.3815 -1021.17 49.9942L-1134 51.6069V93H-1021.17C-906.207 93 -680.543 93 -452.75 93C-224.957 93 0.707016 93 228.5 93C456.293 93 681.957 93 909.75 93C1137.54 93 1363.21 93 1478.17 93H1591V0Z" fill="#008080" fill-opacity="0.8"/>
<path fill-rule="evenodd" clip-rule="evenodd" d="M1591 37.2L1500.17 44.64C1409.33 52.08 1227.67 66.96 1046 63.24C864.333 59.52 682.667 37.2 501 22.32C319.333 7.44 137.666 0 -44.0002 0C-225.667 0 -407.334 7.44 -589 20.46C-770.667 33.48 -952.334 52.08 -1043.17 61.38L-1134 70.68V93H-1043.17C-952.334 93 -770.667 93 -589 93C-407.334 93 -225.667 93 -44.0002 93C137.666 93 319.333 93 501 93C682.667 93 864.333 93 1046 93C1227.67 93 1409.33 93 1500.17 93H1591V37.2Z" fill="#66B2B2" fill-opacity="0.8"/>
</svg>
