<svg width="266" height="209" viewBox="0 0 266 209" fill="none" xmlns="http://www.w3.org/2000/svg">
<g clip-path="url(#clip0_1071_965)">
<path opacity="0.18" d="M265.692 130.469C265.475 133.734 265.01 136.977 264.3 140.171C261.893 151.226 256.924 161.835 252.07 172.083C248.993 178.633 245.147 185.037 239.455 189.565C237.109 191.449 234.133 193.348 231.171 194.047C228.89 194.669 226.652 195.44 224.472 196.353C223.535 196.645 222.56 196.795 221.579 196.799C214.672 197.138 207.749 196.814 200.904 195.831C194.296 194.877 188.212 192.694 181.766 190.995C168.536 187.505 154.845 184.776 141.084 186.036C112.278 188.673 86.7488 208.392 57.8351 208.984C39.9438 209.346 -0.00769075 199.198 1.11053e-06 160.844C1.11053e-06 152.825 4.72281 146.598 9.17639 140.163C12.2531 135.758 15.153 131.253 16.3375 126.01C17.1931 122.027 17.2715 117.915 16.5683 113.902C15.0837 104.408 10.4686 94.5749 8.62258 81.3289C7.28419 71.7806 7.38419 60.4488 11.1224 46.1957C14.6145 32.9035 25.5293 23.0555 35.3826 13.4611C60.6965 -11.1782 139.469 4.68937 172.244 8.95609C234.171 16.9898 269.692 67.168 265.692 130.469Z" fill="#98C9C9"/>
<path d="M264.3 140.171C263.54 143.606 262.574 146.992 261.408 150.311C259.228 156.365 256.738 162.303 253.947 168.101C253.324 169.431 252.693 170.761 252.07 172.083L251.616 173.052C248.586 179.271 244.84 185.275 239.455 189.588C237.109 191.472 234.133 193.371 231.171 194.07C228.89 194.693 226.652 195.463 224.472 196.377C223.535 196.668 222.56 196.818 221.58 196.823C214.673 197.162 207.749 196.837 200.904 195.854C194.297 194.901 188.212 192.717 181.766 191.018C168.536 187.528 154.845 184.799 141.084 186.06C112.278 188.697 86.7489 208.416 57.8352 209.008C43.6129 209.292 15.4607 202.942 4.50751 181.063C2.48197 176.992 1.13114 172.62 0.50774 168.116C0.165496 165.715 -0.00415913 163.292 7.74138e-05 160.867C0.0532726 157.188 0.984127 153.574 2.7153 150.327C4.63105 146.801 6.78999 143.413 9.17647 140.187L264.3 140.171Z" fill="#C3E1E1"/>
<path opacity="0.54" d="M129.639 105.63C124.408 110.819 116.509 112.249 109.14 112.219C101.771 112.188 94.3638 110.95 87.0565 111.911C82.3798 112.526 77.8262 114.017 73.165 114.479C68.5037 114.94 63.7578 114.348 59.0427 114.217C52.4508 114.041 45.8742 114.771 39.2823 114.986C31.6935 115.262 24.0949 114.894 16.5683 113.887C15.0837 104.392 10.4686 94.5597 8.62256 81.3137C9.35831 82.1318 10.3515 82.6742 11.4378 82.8512C11.2686 80.1374 11.2147 77.2545 12.6146 74.9251C13.2822 73.8249 14.3092 72.9885 15.5222 72.5573C16.5144 72.219 18.4835 72.8187 19.1989 72.219C19.9142 71.6194 19.4989 69.0593 19.6681 68.0446C19.9685 66.1723 20.703 64.3963 21.8129 62.8585C22.9228 61.3207 24.3772 60.0638 26.06 59.1882C27.3143 58.5212 28.6759 58.0789 30.0829 57.8813C32.0171 57.6553 33.9761 57.7776 35.8671 58.2426C39.391 58.9531 42.5939 60.7747 45.0051 63.4396C47.3126 66.161 48.4126 70.0049 47.3665 73.4337C48.4321 73.1806 49.5441 73.1978 50.6014 73.4838C51.6586 73.7698 52.6275 74.3155 53.42 75.0712C53.8329 75.4764 54.1875 75.9369 54.4738 76.4396C54.4657 75.5713 54.5955 74.7072 54.8583 73.8796C56.2352 69.6282 62.3425 69.2208 65.627 71.4426C68.4268 73.3568 69.8344 76.824 69.9959 80.2451C71.1266 77.2699 75.3802 76.5165 78.0955 78.1847C80.8107 79.853 82.126 83.1049 82.626 86.2492C84.7227 83.4528 87.3331 81.0811 90.3178 79.261C91.6609 78.3309 93.227 77.7738 94.856 77.6466C96.5956 77.745 98.2758 78.3136 99.7173 79.2918C102.46 80.908 104.972 82.8862 107.186 85.1729C109.067 86.9468 110.476 89.1609 111.286 91.6153C111.97 94.0908 111.563 96.9967 109.747 98.8034C111.947 97.7886 114.601 96.7815 116.67 98.0346C117.793 98.7034 118.478 99.895 119.285 100.918C120.521 102.459 122.102 103.689 123.9 104.507C125.698 105.326 127.664 105.711 129.639 105.63Z" fill="#889D9D"/>
<path d="M44.1897 155.409C44.1897 155.409 28.806 123.051 46.4358 86.9873C46.4358 86.9873 63.8963 115.67 48.8202 155.409H44.1897Z" fill="#C3E1E1"/>
<path d="M179.99 145.268H78.98V155.362H179.99V145.268Z" fill="#C3E1E1"/>
<path d="M179.99 145.268H78.98V155.362H179.99V145.268Z" fill="url(#paint0_linear_1071_965)"/>
<path d="M192.096 135.097V155.37H177.159L174.336 148.859C174.018 148.125 173.491 147.502 172.82 147.066C172.15 146.63 171.367 146.4 170.567 146.406L161.337 146.475C160.543 146.481 159.769 146.718 159.109 147.158C158.449 147.598 157.932 148.221 157.622 148.951L154.852 155.37H107.478C107.072 155.369 106.671 155.276 106.306 155.097C105.941 154.919 105.621 154.66 105.371 154.34L102.363 148.067C102.118 147.749 101.802 147.493 101.44 147.319C101.078 147.146 100.68 147.059 100.279 147.067L87.5948 147.167C87.2175 147.175 86.8464 147.264 86.5076 147.43C86.1687 147.596 85.8703 147.835 85.6334 148.128L82.2336 154.371C81.9826 154.682 81.6652 154.933 81.3045 155.106C80.9439 155.279 80.5491 155.369 80.1491 155.37H68.0037V133.075C68.0037 121.382 72.7188 105.061 81.2106 105.061H168.067C171.473 105.053 174.808 106.027 177.674 107.866C180.539 109.706 182.812 112.333 184.22 115.432L191.143 130.669C191.771 132.061 192.096 133.57 192.096 135.097Z" fill="#C3E1E1"/>
<path d="M72.1113 152.218H65.304C64.5223 152.218 63.8887 152.851 63.8887 153.633V154.594C63.8887 155.375 64.5223 156.008 65.304 156.008H72.1113C72.8929 156.008 73.5266 155.375 73.5266 154.594V153.633C73.5266 152.851 72.8929 152.218 72.1113 152.218Z" fill="#C3E1E1"/>
<path d="M193.612 152.218H186.804C186.023 152.218 185.389 152.851 185.389 153.633V154.594C185.389 155.375 186.023 156.008 186.804 156.008H193.612C194.393 156.008 195.027 155.375 195.027 154.594V153.633C195.027 152.851 194.393 152.218 193.612 152.218Z" fill="#C3E1E1"/>
<path d="M165.813 164.38C170.44 164.38 174.19 160.632 174.19 156.008C174.19 151.384 170.44 147.636 165.813 147.636C161.187 147.636 157.437 151.384 157.437 156.008C157.437 160.632 161.187 164.38 165.813 164.38Z" fill="#4B535A"/>
<path d="M165.814 161.62C168.915 161.62 171.429 159.108 171.429 156.008C171.429 152.909 168.915 150.396 165.814 150.396C162.712 150.396 160.198 152.909 160.198 156.008C160.198 159.108 162.712 161.62 165.814 161.62Z" fill="#C3E1E1"/>
<path d="M165.814 159.598C167.623 159.598 169.09 158.132 169.09 156.323C169.09 154.515 167.623 153.048 165.814 153.048C164.004 153.048 162.537 154.515 162.537 156.323C162.537 158.132 164.004 159.598 165.814 159.598Z" fill="url(#paint1_linear_1071_965)"/>
<path d="M94.01 164.38C98.6362 164.38 102.386 160.632 102.386 156.008C102.386 151.384 98.6362 147.636 94.01 147.636C89.3838 147.636 85.6335 151.384 85.6335 156.008C85.6335 160.632 89.3838 164.38 94.01 164.38Z" fill="#4B535A"/>
<path d="M94.0098 161.62C97.1109 161.62 99.6249 159.108 99.6249 156.008C99.6249 152.909 97.1109 150.396 94.0098 150.396C90.9087 150.396 88.3948 152.909 88.3948 156.008C88.3948 159.108 90.9087 161.62 94.0098 161.62Z" fill="#C3E1E1"/>
<path d="M94.0099 159.598C95.8196 159.598 97.2866 158.132 97.2866 156.323C97.2866 154.515 95.8196 153.048 94.0099 153.048C92.2002 153.048 90.7332 154.515 90.7332 156.323C90.7332 158.132 92.2002 159.598 94.0099 159.598Z" fill="url(#paint2_linear_1071_965)"/>
<path d="M191.135 130.654L191.904 133.06H68.0037C68.0037 121.367 72.7188 105.046 81.2106 105.046H168.067C171.473 105.037 174.808 106.011 177.674 107.851C180.539 109.69 182.812 112.318 184.22 115.417L191.135 130.654Z" fill="white"/>
<path d="M80.1338 113.295H74.9341V114.117H80.1338V113.295Z" fill="#C3E1E1"/>
<path d="M80.1338 115.417H74.9341V116.239H80.1338V115.417Z" fill="#C3E1E1"/>
<path d="M80.1338 117.531H74.9341V118.353H80.1338V117.531Z" fill="#C3E1E1"/>
<path d="M80.1338 119.653H74.9341V120.475H80.1338V119.653Z" fill="#C3E1E1"/>
<path d="M80.1338 121.774H74.9341V122.597H80.1338V121.774Z" fill="#C3E1E1"/>
<path d="M80.1338 123.896H74.9341V124.719H80.1338V123.896Z" fill="#C3E1E1"/>
<path d="M110.832 113.702H90.4639C89.3211 113.702 88.3948 114.628 88.3948 115.77V123.781C88.3948 124.923 89.3211 125.849 90.4639 125.849H110.832C111.975 125.849 112.901 124.923 112.901 123.781V115.77C112.901 114.628 111.975 113.702 110.832 113.702Z" fill="#C3E1E1"/>
<path d="M178.082 125.849H157.714C157.442 125.849 157.172 125.795 156.92 125.691C156.669 125.586 156.44 125.433 156.248 125.241C156.056 125.048 155.904 124.819 155.8 124.567C155.697 124.315 155.644 124.045 155.645 123.773V115.77C155.644 115.498 155.697 115.229 155.8 114.978C155.904 114.726 156.056 114.498 156.249 114.306C156.441 114.113 156.669 113.961 156.921 113.858C157.172 113.754 157.442 113.701 157.714 113.702H174.436C175.582 113.702 175.974 114.356 176.505 115.77L179.797 123.004C179.93 123.281 179.997 123.584 179.994 123.89C179.99 124.197 179.916 124.498 179.777 124.771C179.638 125.044 179.437 125.281 179.191 125.464C178.945 125.647 178.66 125.771 178.359 125.826C178.267 125.841 178.175 125.849 178.082 125.849Z" fill="#C3E1E1"/>
<path d="M146.945 113.702H120.147C118.851 113.702 117.801 114.752 117.801 116.047V123.504C117.801 124.799 118.851 125.849 120.147 125.849H146.945C148.241 125.849 149.291 124.799 149.291 123.504V116.047C149.291 114.752 148.241 113.702 146.945 113.702Z" fill="#C3E1E1"/>
<path d="M110.832 113.702H90.4639C89.3211 113.702 88.3948 114.628 88.3948 115.77V123.781C88.3948 124.923 89.3211 125.849 90.4639 125.849H110.832C111.975 125.849 112.901 124.923 112.901 123.781V115.77C112.901 114.628 111.975 113.702 110.832 113.702Z" fill="url(#paint3_linear_1071_965)"/>
<path d="M178.082 125.849H157.714C157.442 125.849 157.172 125.795 156.92 125.691C156.669 125.586 156.44 125.433 156.248 125.241C156.056 125.048 155.904 124.819 155.8 124.567C155.697 124.315 155.644 124.045 155.645 123.773V115.77C155.644 115.498 155.697 115.229 155.8 114.978C155.904 114.726 156.056 114.498 156.249 114.306C156.441 114.113 156.669 113.961 156.921 113.858C157.172 113.754 157.442 113.701 157.714 113.702H174.436C175.582 113.702 175.974 114.356 176.505 115.77L179.797 123.004C179.93 123.281 179.997 123.584 179.994 123.89C179.99 124.197 179.916 124.498 179.777 124.771C179.638 125.044 179.437 125.281 179.191 125.464C178.945 125.647 178.66 125.771 178.359 125.826C178.267 125.841 178.175 125.849 178.082 125.849Z" fill="url(#paint4_linear_1071_965)"/>
<path d="M146.945 113.702H120.147C118.851 113.702 117.801 114.752 117.801 116.047V123.504C117.801 124.799 118.851 125.849 120.147 125.849H146.945C148.241 125.849 149.291 124.799 149.291 123.504V116.047C149.291 114.752 148.241 113.702 146.945 113.702Z" fill="url(#paint5_linear_1071_965)"/>
<path d="M68.0037 140.31H69.0344C69.3649 140.31 69.6818 140.441 69.9155 140.674C70.1492 140.908 70.2805 141.225 70.2805 141.555V148.589C70.2805 148.92 70.1492 149.237 69.9155 149.47C69.6818 149.704 69.3649 149.835 69.0344 149.835H68.0037V140.31Z" fill="#C3E1E1"/>
<path d="M151.168 133.06H115.363V155.355H151.168V133.06Z" fill="url(#paint6_linear_1071_965)"/>
<path d="M188.943 125.849H187.474C186.979 125.848 186.494 125.707 186.075 125.443C185.656 125.18 185.32 124.803 185.105 124.358L180.92 115.655C180.822 115.447 180.778 115.218 180.792 114.988C180.806 114.758 180.877 114.536 181 114.341C181.123 114.147 181.292 113.986 181.494 113.874C181.695 113.763 181.921 113.704 182.151 113.702H183.313L188.943 125.849Z" fill="#C3E1E1"/>
<path d="M188.943 125.849H187.474C186.979 125.848 186.494 125.707 186.075 125.443C185.656 125.18 185.32 124.803 185.105 124.358L180.92 115.655C180.822 115.447 180.778 115.218 180.792 114.988C180.806 114.758 180.877 114.536 181 114.341C181.123 114.147 181.292 113.986 181.494 113.874C181.695 113.763 181.921 113.704 182.151 113.702H183.313L188.943 125.849Z" fill="url(#paint7_linear_1071_965)"/>
<path d="M191.896 144.207V155.37H177.159L174.336 148.859C174.018 148.125 173.491 147.502 172.82 147.066C172.15 146.63 171.367 146.4 170.567 146.406L161.337 146.475C160.543 146.481 159.769 146.718 159.109 147.158C158.449 147.598 157.932 148.221 157.622 148.951L154.852 155.37H107.478C107.072 155.369 106.671 155.276 106.306 155.097C105.941 154.919 105.621 154.66 105.371 154.34L102.363 148.067C102.118 147.749 101.802 147.493 101.44 147.319C101.078 147.146 100.68 147.059 100.279 147.067L87.5948 147.167C87.2175 147.175 86.8464 147.264 86.5075 147.43C86.1687 147.596 85.8703 147.835 85.6334 148.128L82.2336 154.371C81.9826 154.682 81.6652 154.933 81.3045 155.106C80.9439 155.279 80.5491 155.369 80.1491 155.37H68.7036V144.223L191.896 144.207Z" fill="url(#paint8_linear_1071_965)"/>
<path d="M46.4358 87.0103V155.432H48.8203C48.8203 155.432 63.3194 120.56 46.4358 87.0103Z" fill="url(#paint9_linear_1071_965)"/>
<path d="M143.03 58.9115C141.292 64.9695 145.284 72.0653 151.36 73.7182C156.16 75.0251 161.567 73.303 166.09 75.3633C167.898 76.1936 169.398 77.5621 171.013 78.7152C174.251 80.9801 177.987 82.4346 181.905 82.9563C185.822 83.4781 189.808 83.0518 193.527 81.7135C194.834 81.1389 196.191 80.6859 197.581 80.3604C200.081 79.9299 202.611 80.7371 205.103 81.2137C210.398 82.2357 215.869 81.8216 220.949 80.0145C225.618 78.3539 230.479 73.9949 228.979 69.2516C227.756 65.4077 223.21 64.0008 219.749 61.902C212.449 57.4585 208.788 48.3101 201.134 44.52C193.719 40.8452 183.674 43.9741 179.659 51.2007C178.3 49.313 176.371 47.9105 174.156 47.1993C171.941 46.4881 169.556 46.5055 167.352 47.2491C159.891 49.9783 145.961 48.7483 143.03 58.9115Z" fill="#C6DADA"/>
<path opacity="0.54" d="M252.274 174.373C249.243 180.592 245.497 186.596 240.113 190.909C237.767 192.793 234.79 194.692 231.829 195.391C229.548 196.013 227.31 196.784 225.129 197.697C224.193 197.989 223.218 198.139 222.237 198.143C215.33 198.482 208.406 198.158 201.561 197.175C194.954 196.221 188.87 194.038 182.424 192.339C169.194 188.849 155.503 186.12 141.742 187.38C112.936 190.017 87.4064 209.737 58.4927 210.328C44.2705 210.613 16.1183 204.263 5.16504 182.383C12.5569 181.161 22.8563 183.06 28.3252 181.084C36.7324 178.048 44.6704 173.204 53.5699 172.374C70.3382 170.836 87.5141 183.767 103.082 177.34C109.651 174.634 115.466 168.584 122.504 169.537C124.92 169.86 127.12 171.013 129.319 172.074C139.481 176.989 150.338 180.315 161.51 181.938C165.74 182.553 170.079 182.914 174.278 182.107C182.801 180.469 190.431 174.104 199.062 174.826C204.93 175.318 210.053 179.039 215.83 180.208C223.422 181.707 231.06 178.67 238.459 176.364C242.874 175.003 247.728 173.996 252.274 174.373Z" fill="white"/>
</g>
<defs>
<linearGradient id="paint0_linear_1071_965" x1="129.485" y1="121.329" x2="129.485" y2="251.775" gradientUnits="userSpaceOnUse">
<stop offset="0.01"/>
<stop offset="0.13" stop-opacity="0.69"/>
<stop offset="0.25" stop-opacity="0.32"/>
<stop offset="1" stop-opacity="0"/>
</linearGradient>
<linearGradient id="paint1_linear_1071_965" x1="161.491" y1="93.3219" x2="175.775" y2="301.77" gradientUnits="userSpaceOnUse">
<stop offset="0.01"/>
<stop offset="0.13" stop-opacity="0.69"/>
<stop offset="0.25" stop-opacity="0.32"/>
<stop offset="1" stop-opacity="0"/>
</linearGradient>
<linearGradient id="paint2_linear_1071_965" x1="90.0255" y1="98.2191" x2="104.302" y2="306.667" gradientUnits="userSpaceOnUse">
<stop offset="0.01"/>
<stop offset="0.13" stop-opacity="0.69"/>
<stop offset="0.25" stop-opacity="0.32"/>
<stop offset="1" stop-opacity="0"/>
</linearGradient>
<linearGradient id="paint3_linear_1071_965" x1="92.8022" y1="58.5962" x2="124.606" y2="306.662" gradientUnits="userSpaceOnUse">
<stop offset="0.01"/>
<stop offset="0.13" stop-opacity="0.69"/>
<stop offset="0.25" stop-opacity="0.32"/>
<stop offset="1" stop-opacity="0"/>
</linearGradient>
<linearGradient id="paint4_linear_1071_965" x1="158.368" y1="50.1935" x2="190.171" y2="298.259" gradientUnits="userSpaceOnUse">
<stop offset="0.01"/>
<stop offset="0.13" stop-opacity="0.69"/>
<stop offset="0.25" stop-opacity="0.32"/>
<stop offset="1" stop-opacity="0"/>
</linearGradient>
<linearGradient id="paint5_linear_1071_965" x1="125.162" y1="54.4525" x2="156.965" y2="302.511" gradientUnits="userSpaceOnUse">
<stop offset="0.01"/>
<stop offset="0.13" stop-opacity="0.69"/>
<stop offset="0.25" stop-opacity="0.32"/>
<stop offset="1" stop-opacity="0"/>
</linearGradient>
<linearGradient id="paint6_linear_1071_965" x1="140.238" y1="100.033" x2="126.676" y2="186.046" gradientUnits="userSpaceOnUse">
<stop offset="0.01"/>
<stop offset="0.13" stop-opacity="0.69"/>
<stop offset="0.25" stop-opacity="0.32"/>
<stop offset="1" stop-opacity="0"/>
</linearGradient>
<linearGradient id="paint7_linear_1071_965" x1="191.574" y1="113.433" x2="166.035" y2="139.132" gradientUnits="userSpaceOnUse">
<stop offset="0.01"/>
<stop offset="0.13" stop-opacity="0.69"/>
<stop offset="0.25" stop-opacity="0.32"/>
<stop offset="1" stop-opacity="0"/>
</linearGradient>
<linearGradient id="paint8_linear_1071_965" x1="133.261" y1="100.756" x2="127.422" y2="197.515" gradientUnits="userSpaceOnUse">
<stop offset="0.01"/>
<stop offset="0.13" stop-opacity="0.69"/>
<stop offset="0.25" stop-opacity="0.32"/>
<stop offset="1" stop-opacity="0"/>
</linearGradient>
<linearGradient id="paint9_linear_1071_965" x1="139.669" y1="158.33" x2="-118.01" y2="55.6346" gradientUnits="userSpaceOnUse">
<stop offset="0.01"/>
<stop offset="0.13" stop-opacity="0.69"/>
<stop offset="0.25" stop-opacity="0.32"/>
<stop offset="1" stop-opacity="0"/>
</linearGradient>
<clipPath id="clip0_1071_965">
<rect width="266" height="209" fill="white"/>
</clipPath>
</defs>
</svg>
